<?xml version="1.0" encoding="utf-8"?>
<!-- Generator: Adobe Illustrator 20.1.0, SVG Export Plug-In . SVG Version: 6.00 Build 0)  -->
<svg version="1.1" id="Layer_1" xmlns="http://www.w3.org/2000/svg" xmlns:xlink="http://www.w3.org/1999/xlink" x="0px" y="0px"
	 viewBox="0 0 370.6 9.1" style="enable-background:new 0 0 370.6 9.1;" xml:space="preserve">
<style type="text/css">
	.st0{fill:#FFFFFF;}
</style>
<g>
	<path class="st0" d="M111,9.1l-1.1-2.9h-3.6l-1.1,2.9H104l3.6-9.1h0.9l3.6,9.1H111z M109.5,5.3l-1.1-2.8c-0.1-0.4-0.3-0.8-0.4-1.3
		c-0.1,0.4-0.2,0.8-0.4,1.3l-1.1,2.8H109.5z"/>
	<path class="st0" d="M119.1,2.7c0,0.9-0.3,1.6-0.9,2.1c-0.6,0.5-1.5,0.7-2.7,0.7h-1.1v3.6h-1.1V0h2.4C118,0,119.1,0.9,119.1,2.7z
		 M114.4,4.6h1c0.9,0,1.6-0.2,2-0.5c0.4-0.3,0.6-0.8,0.6-1.5c0-0.6-0.2-1-0.6-1.3c-0.4-0.3-1-0.4-1.8-0.4h-1.2V4.6z"/>
	<path class="st0" d="M126.8,2.7c0,0.9-0.3,1.6-0.9,2.1c-0.6,0.5-1.5,0.7-2.7,0.7h-1.1v3.6H121V0h2.4C125.6,0,126.8,0.9,126.8,2.7z
		 M122.1,4.6h1c0.9,0,1.6-0.2,2-0.5c0.4-0.3,0.6-0.8,0.6-1.5c0-0.6-0.2-1-0.6-1.3c-0.4-0.3-1-0.4-1.8-0.4h-1.2V4.6z"/>
	<path class="st0" d="M128.7,9.1V0h1.1v8.1h4v1H128.7z"/>
	<path class="st0" d="M135.3,9.1V0h1.1v9.1H135.3z"/>
	<path class="st0" d="M142.8,0.8c-1,0-1.8,0.3-2.4,1c-0.6,0.7-0.9,1.6-0.9,2.7c0,1.2,0.3,2.1,0.8,2.8c0.6,0.6,1.4,1,2.4,1
		c0.6,0,1.4-0.1,2.2-0.3v0.9c-0.6,0.2-1.4,0.4-2.3,0.4c-1.3,0-2.4-0.4-3.1-1.2s-1.1-2-1.1-3.5c0-0.9,0.2-1.8,0.5-2.5
		c0.4-0.7,0.9-1.2,1.5-1.6s1.4-0.6,2.3-0.6c1,0,1.8,0.2,2.5,0.5l-0.4,0.9C144.1,1,143.4,0.8,142.8,0.8z"/>
	<path class="st0" d="M152.6,9.1l-1.1-2.9h-3.6l-1.1,2.9h-1.1l3.6-9.1h0.9l3.6,9.1H152.6z M151.2,5.3l-1.1-2.8
		c-0.1-0.4-0.3-0.8-0.4-1.3c-0.1,0.4-0.2,0.8-0.4,1.3l-1.1,2.8H151.2z"/>
	<path class="st0" d="M157.8,9.1h-1.1V0.9h-2.9V0h6.8v0.9h-2.9V9.1z"/>
	<path class="st0" d="M162,9.1V0h1.1v9.1H162z"/>
	<path class="st0" d="M173.5,4.5c0,1.5-0.4,2.6-1.1,3.4c-0.7,0.8-1.8,1.3-3.1,1.3c-1.3,0-2.4-0.4-3.1-1.2s-1.1-2-1.1-3.5
		c0-1.5,0.4-2.6,1.1-3.4c0.7-0.8,1.8-1.2,3.1-1.2c1.3,0,2.3,0.4,3.1,1.2S173.5,3.1,173.5,4.5z M166.2,4.5c0,1.2,0.3,2.2,0.8,2.8
		c0.5,0.6,1.3,1,2.3,1c1,0,1.8-0.3,2.3-1c0.5-0.6,0.8-1.6,0.8-2.8c0-1.2-0.3-2.2-0.8-2.8s-1.3-0.9-2.3-0.9c-1,0-1.8,0.3-2.3,1
		C166.5,2.4,166.2,3.3,166.2,4.5z"/>
	<path class="st0" d="M182.6,9.1h-1.2l-5-7.6h0c0.1,0.9,0.1,1.7,0.1,2.5v5.2h-1V0h1.2l5,7.6h0c0-0.1,0-0.5-0.1-1.1s0-1,0-1.3V0h1
		V9.1z"/>
	<path class="st0" d="M194.2,2.7c0,0.9-0.3,1.6-0.9,2.1c-0.6,0.5-1.5,0.7-2.7,0.7h-1.1v3.6h-1.1V0h2.4C193.1,0,194.2,0.9,194.2,2.7z
		 M189.5,4.6h1c0.9,0,1.6-0.2,2-0.5c0.4-0.3,0.6-0.8,0.6-1.5c0-0.6-0.2-1-0.6-1.3c-0.4-0.3-1-0.4-1.8-0.4h-1.2V4.6z"/>
	<path class="st0" d="M201.2,9.1h-5.1V0h5.1v0.9h-4v2.9h3.8v0.9h-3.8v3.3h4V9.1z"/>
	<path class="st0" d="M204.3,5.3v3.8h-1.1V0h2.5c1.1,0,1.9,0.2,2.5,0.6c0.5,0.4,0.8,1.1,0.8,1.9c0,1.2-0.6,2-1.8,2.4l2.5,4.1h-1.3
		l-2.2-3.8H204.3z M204.3,4.4h1.5c0.7,0,1.3-0.1,1.6-0.4c0.3-0.3,0.5-0.7,0.5-1.3c0-0.6-0.2-1-0.5-1.3s-0.9-0.4-1.7-0.4h-1.4V4.4z"
		/>
	<path class="st0" d="M212.1,9.1h-1.1V0h5.1v0.9h-4v3.3h3.8v0.9h-3.8V9.1z"/>
	<path class="st0" d="M225.6,4.5c0,1.5-0.4,2.6-1.1,3.4c-0.7,0.8-1.8,1.3-3.1,1.3c-1.3,0-2.4-0.4-3.1-1.2s-1.1-2-1.1-3.5
		c0-1.5,0.4-2.6,1.1-3.4c0.7-0.8,1.8-1.2,3.1-1.2c1.3,0,2.3,0.4,3.1,1.2S225.6,3.1,225.6,4.5z M218.3,4.5c0,1.2,0.3,2.2,0.8,2.8
		c0.5,0.6,1.3,1,2.3,1c1,0,1.8-0.3,2.3-1c0.5-0.6,0.8-1.6,0.8-2.8c0-1.2-0.3-2.2-0.8-2.8s-1.3-0.9-2.3-0.9c-1,0-1.8,0.3-2.3,1
		C218.6,2.4,218.3,3.3,218.3,4.5z"/>
	<path class="st0" d="M228.7,5.3v3.8h-1.1V0h2.5c1.1,0,1.9,0.2,2.5,0.6c0.5,0.4,0.8,1.1,0.8,1.9c0,1.2-0.6,2-1.8,2.4l2.5,4.1h-1.3
		l-2.2-3.8H228.7z M228.7,4.4h1.5c0.7,0,1.3-0.1,1.6-0.4c0.3-0.3,0.5-0.7,0.5-1.3c0-0.6-0.2-1-0.5-1.3s-0.9-0.4-1.7-0.4h-1.4V4.4z"
		/>
	<path class="st0" d="M239.5,9.1L236.4,1h0c0.1,0.6,0.1,1.4,0.1,2.3v5.8h-1V0h1.6l2.9,7.5h0l2.9-7.5h1.6v9.1h-1.1V3.2
		c0-0.7,0-1.4,0.1-2.2h0l-3.1,8.1H239.5z"/>
	<path class="st0" d="M252.7,9.1l-1.1-2.9h-3.6l-1.1,2.9h-1.1l3.6-9.1h0.9l3.6,9.1H252.7z M251.2,5.3l-1.1-2.8
		c-0.1-0.4-0.3-0.8-0.4-1.3c-0.1,0.4-0.2,0.8-0.4,1.3l-1.1,2.8H251.2z"/>
	<path class="st0" d="M262.2,9.1H261l-5-7.6h0c0.1,0.9,0.1,1.7,0.1,2.5v5.2h-1V0h1.2l5,7.6h0c0-0.1,0-0.5-0.1-1.1s0-1,0-1.3V0h1V9.1
		z"/>
	<path class="st0" d="M268.6,0.8c-1,0-1.8,0.3-2.4,1c-0.6,0.7-0.9,1.6-0.9,2.7c0,1.2,0.3,2.1,0.8,2.8c0.6,0.6,1.4,1,2.4,1
		c0.6,0,1.4-0.1,2.2-0.3v0.9c-0.6,0.2-1.4,0.4-2.3,0.4c-1.3,0-2.4-0.4-3.1-1.2s-1.1-2-1.1-3.5c0-0.9,0.2-1.8,0.5-2.5
		c0.4-0.7,0.9-1.2,1.5-1.6s1.4-0.6,2.3-0.6c1,0,1.8,0.2,2.5,0.5l-0.4,0.9C269.9,1,269.3,0.8,268.6,0.8z"/>
	<path class="st0" d="M277.8,9.1h-5.1V0h5.1v0.9h-4v2.9h3.8v0.9h-3.8v3.3h4V9.1z"/>
	<path class="st0" d="M287.1,9.1L284.1,1h0c0.1,0.6,0.1,1.4,0.1,2.3v5.8h-1V0h1.6l2.9,7.5h0l2.9-7.5h1.6v9.1h-1.1V3.2
		c0-0.7,0-1.4,0.1-2.2h0L288,9.1H287.1z"/>
	<path class="st0" d="M300.3,9.1l-1.1-2.9h-3.6l-1.1,2.9h-1.1L297,0h0.9l3.6,9.1H300.3z M298.9,5.3l-1.1-2.8
		c-0.1-0.4-0.3-0.8-0.4-1.3c-0.1,0.4-0.2,0.8-0.4,1.3l-1.1,2.8H298.9z"/>
	<path class="st0" d="M309.8,9.1h-1.2l-5-7.6h0c0.1,0.9,0.1,1.7,0.1,2.5v5.2h-1V0h1.2l5,7.6h0c0-0.1,0-0.5-0.1-1.1s0-1,0-1.3V0h1
		V9.1z"/>
	<path class="st0" d="M318,9.1l-1.1-2.9h-3.6l-1.1,2.9h-1.1l3.6-9.1h0.9l3.6,9.1H318z M316.6,5.3l-1.1-2.8c-0.1-0.4-0.3-0.8-0.4-1.3
		c-0.1,0.4-0.2,0.8-0.4,1.3l-1.1,2.8H316.6z"/>
	<path class="st0" d="M324.4,4.3h3.1v4.4c-0.5,0.2-1,0.3-1.5,0.3c-0.5,0.1-1.1,0.1-1.7,0.1c-1.4,0-2.5-0.4-3.2-1.2s-1.2-2-1.2-3.4
		c0-0.9,0.2-1.8,0.6-2.5s0.9-1.3,1.6-1.6c0.7-0.4,1.5-0.6,2.5-0.6c1,0,1.9,0.2,2.7,0.5l-0.4,0.9c-0.8-0.3-1.6-0.5-2.4-0.5
		c-1.1,0-2,0.3-2.6,1c-0.6,0.7-0.9,1.6-0.9,2.7c0,1.2,0.3,2.2,0.9,2.8c0.6,0.6,1.5,1,2.6,1c0.6,0,1.2-0.1,1.8-0.2V5.3h-2V4.3z"/>
	<path class="st0" d="M334.7,9.1h-5.1V0h5.1v0.9h-4v2.9h3.8v0.9h-3.8v3.3h4V9.1z"/>
	<path class="st0" d="M340.8,9.1L337.7,1h0c0.1,0.6,0.1,1.4,0.1,2.3v5.8h-1V0h1.6l2.9,7.5h0l2.9-7.5h1.6v9.1h-1.1V3.2
		c0-0.7,0-1.4,0.1-2.2h0l-3.1,8.1H340.8z"/>
	<path class="st0" d="M353.3,9.1h-5.1V0h5.1v0.9h-4v2.9h3.8v0.9h-3.8v3.3h4V9.1z"/>
	<path class="st0" d="M362.5,9.1h-1.2l-5-7.6h0c0.1,0.9,0.1,1.7,0.1,2.5v5.2h-1V0h1.2l5,7.6h0c0-0.1,0-0.5-0.1-1.1s0-1,0-1.3V0h1
		V9.1z"/>
	<path class="st0" d="M367.8,9.1h-1.1V0.9h-2.9V0h6.8v0.9h-2.9V9.1z"/>
</g>
<g>
	<path class="st0" d="M7.8,9.1H5.3V5.4H2.5v3.7H0V0h2.5v3.4h2.9V0h2.5V9.1z"/>
	<path class="st0" d="M18.4,9.1L18,7.4h-3l-0.5,1.7h-2.7l3-9.1h3.3l3,9.1H18.4z M17.5,5.4l-0.4-1.5c-0.1-0.3-0.2-0.8-0.3-1.3
		c-0.1-0.5-0.2-0.9-0.3-1.1c0,0.2-0.1,0.6-0.2,1C16.1,3,15.9,4,15.5,5.4H17.5z"/>
	<path class="st0" d="M35,9.1h-2.9l-0.9-4c0-0.2-0.1-0.5-0.2-1c-0.1-0.5-0.2-0.9-0.2-1.2c0,0.3-0.1,0.6-0.2,1
		c-0.1,0.4-0.1,0.8-0.2,1.1S30,6.7,29.5,9.1h-2.9L24.4,0h2.4l1,4.6c0.2,1,0.4,1.8,0.5,2.4c0.1-0.4,0.2-1,0.3-1.7
		c0.1-0.7,0.3-1.3,0.4-1.8L29.7,0h2.3l0.8,3.4C32.8,4,33,4.6,33.1,5.4c0.1,0.7,0.2,1.3,0.3,1.6c0.1-0.5,0.2-1.3,0.4-2.4l1-4.6h2.4
		L35,9.1z"/>
	<path class="st0" d="M49.2,9.1h-2.8l-1.8-3.5l-0.7,0.4v3h-2.5V0h2.5v4c0.1-0.2,0.4-0.6,0.8-1.2L46.6,0h2.7l-2.9,4.1L49.2,9.1z"/>
	<path class="st0" d="M61,0v5.5c0,1.2-0.3,2.1-1,2.8c-0.7,0.7-1.6,1-2.9,1c-1.2,0-2.2-0.3-2.9-1c-0.7-0.6-1-1.5-1-2.7V0h2.5v5.3
		c0,0.6,0.1,1.1,0.4,1.4c0.2,0.3,0.6,0.4,1.1,0.4c0.5,0,0.9-0.1,1.1-0.4c0.2-0.3,0.3-0.8,0.3-1.4V0H61z"/>
	<path class="st0" d="M66,9.1V0h2.5v7.1h3.5v2H66z"/>
	<path class="st0" d="M82,9.1l-0.4-1.7h-3l-0.5,1.7h-2.7l3-9.1h3.3l3,9.1H82z M81.1,5.4l-0.4-1.5c-0.1-0.3-0.2-0.8-0.3-1.3
		c-0.1-0.5-0.2-0.9-0.3-1.1c0,0.2-0.1,0.6-0.2,1C79.8,3,79.5,4,79.2,5.4H81.1z"/>
	<path class="st0" d="M91.2,5.8v3.3h-2.5V0h3c2.5,0,3.7,0.9,3.7,2.7c0,1.1-0.5,1.9-1.5,2.4l2.7,4h-2.8l-1.9-3.3H91.2z M91.2,3.9h0.5
		c0.9,0,1.3-0.4,1.3-1.1c0-0.6-0.4-0.9-1.3-0.9h-0.5V3.9z"/>
</g>
</svg>
